<svg width="320" height="46" viewBox="0 0 320 46" fill="none" xmlns="http://www.w3.org/2000/svg">
<g clip-path="url(#clip0_32_10)">
<path d="M0 38.1934V6.98474H12.855C16.1245 6.98474 18.688 7.87642 20.5828 9.69692C22.4405 11.5174 23.4065 13.8952 23.4065 16.8303C23.4065 19.7654 22.4776 22.1061 20.5828 23.9266C18.7252 25.7471 16.1245 26.6759 12.855 26.6759H6.76187V38.1934H0ZM6.72472 21.1029H12.4463C13.9324 21.1029 15.047 20.6943 15.7901 19.8769C16.5331 19.0595 16.9047 18.0564 16.9047 16.8303C16.9047 15.6043 16.5331 14.6011 15.7901 13.7838C15.047 12.9664 13.9324 12.5577 12.4463 12.5577H6.72472V21.1029Z" fill="#1D1D1B"/>
<path d="M27.0103 38.1934V6.98474H33.735V38.1934H27.0103Z" fill="#1D1D1B"/>
<path d="M39.5308 38.1934V6.98474H47.0728L56.1754 28.7936L65.315 6.98474H72.82V38.1934H66.5782V19.171L58.7018 38.1934H53.7604L45.8096 19.171V38.1934H39.5679H39.5308Z" fill="#1D1D1B"/>
<path d="M104.549 33.9951C101.539 37.0417 97.7498 38.5278 93.1428 38.5278C88.5358 38.5278 84.7462 37.0045 81.7368 33.9951C78.6902 30.9485 77.2041 27.1589 77.2041 22.5891C77.2041 18.0193 78.7274 14.1925 81.7368 11.1831C84.7833 8.13652 88.573 6.65039 93.1428 6.65039C97.7126 6.65039 101.502 8.17367 104.549 11.1831C107.558 14.2296 109.081 18.0193 109.081 22.5891C109.081 27.1589 107.558 30.9857 104.549 33.9951ZM86.5295 29.8711C88.2386 31.8031 90.4678 32.7319 93.1428 32.7319C95.8178 32.7319 98.0099 31.7659 99.7561 29.834C101.502 27.902 102.357 25.487 102.357 22.5519C102.357 19.6168 101.502 17.1647 99.7561 15.2328C98.0099 13.3008 95.8178 12.3348 93.1428 12.3348C90.4678 12.3348 88.2757 13.3008 86.5295 15.2328C84.8205 17.1647 83.9288 19.6168 83.9288 22.5519C83.9288 25.487 84.7833 27.9391 86.5295 29.834V29.8711Z" fill="#1D1D1B"/>
<path d="M184.985 38.5651C180.713 38.5651 177.072 37.1533 174.099 34.3668C171.127 31.5803 169.641 27.6421 169.641 22.5893C169.641 19.1712 170.384 16.2361 171.907 13.7468C173.431 11.2947 175.363 9.4742 177.703 8.32245C180.044 7.1707 182.645 6.6134 185.468 6.6134C189.407 6.6134 192.639 7.65369 195.202 9.73427C197.766 11.8148 199.141 14.527 199.364 17.908H192.713C192.49 16.1989 191.71 14.8614 190.41 13.8583C189.109 12.8551 187.437 12.3721 185.468 12.3721C182.719 12.3721 180.49 13.301 178.706 15.1215C176.923 16.942 176.069 19.4312 176.069 22.5893C176.069 25.7473 176.96 28.2737 178.706 30.2057C180.49 32.1376 182.682 33.1036 185.32 33.1036C187.252 33.1036 189.035 32.5091 190.633 31.3574C192.23 30.1685 193.048 28.8681 193.048 27.4192C193.048 26.6018 192.639 26.156 191.784 26.156H185.766V21.1031H194.236C195.648 21.1031 196.874 21.5861 197.84 22.5893C198.806 23.5924 199.289 24.7813 199.289 26.1188V38.1564H193.345V33.4008C192.825 34.9613 191.822 36.1873 190.298 37.1161C188.775 38.045 186.992 38.528 185.023 38.528L184.985 38.5651Z" fill="#1D1D1B"/>
<path d="M227.6 29.5739L228.454 38.1934H221.767L220.912 30.4655C220.801 29.3881 220.392 28.5336 219.686 27.8648C218.98 27.1961 218.126 26.8617 217.085 26.8617H211.029V38.1934H204.305V6.98474H217.457C220.726 6.98474 223.29 7.87642 225.185 9.69692C227.042 11.5174 228.008 13.8581 228.008 16.7932C228.008 19.7283 226.708 21.9203 224.07 23.295C226.188 24.7439 227.377 26.8617 227.637 29.5739H227.6ZM211.029 12.5577V21.1029H217.085C218.534 21.1029 219.649 20.6943 220.392 19.8397C221.135 19.0224 221.507 17.9821 221.507 16.756C221.507 15.53 221.135 14.5268 220.392 13.7095C219.649 12.8921 218.534 12.5206 217.085 12.5206H211.029V12.5577Z" fill="#1D1D1B"/>
<path d="M258.326 33.9951C255.317 37.0417 251.527 38.5278 246.92 38.5278C242.313 38.5278 238.524 37.0045 235.514 33.9951C232.468 30.9485 230.981 27.1589 230.981 22.5891C230.981 18.0193 232.505 14.1925 235.514 11.1831C238.561 8.13652 242.35 6.65039 246.92 6.65039C251.49 6.65039 255.28 8.17367 258.326 11.1831C261.336 14.2296 262.859 18.0193 262.859 22.5891C262.859 27.1589 261.336 30.9857 258.326 33.9951ZM240.307 29.8711C242.016 31.8031 244.245 32.7319 246.92 32.7319C249.595 32.7319 251.787 31.7659 253.533 29.834C255.28 27.902 256.134 25.487 256.134 22.5519C256.134 19.6168 255.28 17.1647 253.533 15.2328C251.787 13.3008 249.595 12.3348 246.92 12.3348C244.245 12.3348 242.053 13.3008 240.307 15.2328C238.598 17.1647 237.706 19.6168 237.706 22.5519C237.706 25.487 238.561 27.9391 240.307 29.834V29.8711Z" fill="#1D1D1B"/>
<path d="M288.086 35.5184C285.857 37.5618 282.81 38.5649 279.021 38.5649C275.231 38.5649 272.184 37.5618 269.955 35.5184C267.726 33.4749 266.574 30.5398 266.574 26.7131V6.98474H272.853V26.6759C272.853 28.6822 273.41 30.1683 274.525 31.1714C275.64 32.1746 277.126 32.6947 279.021 32.6947C280.915 32.6947 282.401 32.1746 283.516 31.1714C284.631 30.1683 285.225 28.645 285.225 26.6759V6.98474H291.467V26.6759C291.467 30.5027 290.352 33.4378 288.086 35.4812V35.5184Z" fill="#1D1D1B"/>
<path d="M296.631 38.1934V6.98474H309.486C312.755 6.98474 315.319 7.87642 317.214 9.69692C319.071 11.5174 320.037 13.8952 320.037 16.8303C320.037 19.7654 319.109 22.1061 317.214 23.9266C315.356 25.7471 312.755 26.6759 309.486 26.6759H303.393V38.1934H296.668H296.631ZM303.356 21.1029H309.077C310.563 21.1029 311.678 20.6943 312.421 19.8769C313.164 19.0595 313.536 18.0564 313.536 16.8303C313.536 15.6043 313.164 14.6011 312.421 13.7838C311.678 12.9664 310.563 12.5577 309.077 12.5577H303.356V21.1029Z" fill="#1D1D1B"/>
<path d="M143.3 0H132.86V45.1782H143.3V0Z" fill="#5EA95A"/>
<path d="M153.405 0H147.052V45.1782H153.405V0Z" fill="#5EA95A"/>
<path d="M161.059 0H157.232V45.1782H161.059V0Z" fill="#5EA95A"/>
<path d="M129.256 0H117.812V45.1782H129.256V0Z" fill="#5EA95A"/>
</g>
<defs>
<clipPath id="clip0_32_10">
<rect width="320" height="45.1782" fill="white"/>
</clipPath>
</defs>
</svg>
